<?xml version="1.0" encoding="utf-8"?>
<!-- Generator: Adobe Illustrator 15.1.0, SVG Export Plug-In . SVG Version: 6.00 Build 0)  -->
<!DOCTYPE svg PUBLIC "-//W3C//DTD SVG 1.1//EN" "http://www.w3.org/Graphics/SVG/1.1/DTD/svg11.dtd">
<svg version="1.1"
	 id="svg8" sodipodi:docname="prdc2018-logo_editable.svg" inkscape:version="0.92.1 r15371" xmlns:dc="http://purl.org/dc/elements/1.1/" xmlns:cc="http://creativecommons.org/ns#" xmlns:rdf="http://www.w3.org/1999/02/22-rdf-syntax-ns#" xmlns:svg="http://www.w3.org/2000/svg" xmlns:sodipodi="http://sodipodi.sourceforge.net/DTD/sodipodi-0.dtd" xmlns:inkscape="http://www.inkscape.org/namespaces/inkscape"
	 xmlns="http://www.w3.org/2000/svg" xmlns:xlink="http://www.w3.org/1999/xlink" x="0px" y="0px" width="309.879px"
	 height="320.471px" viewBox="0 0 309.879 320.471" enable-background="new 0 0 309.879 320.471" xml:space="preserve">
<sodipodi:namedview  id="base" inkscape:window-y="-13" inkscape:window-x="-13" inkscape:window-height="1315" inkscape:window-width="2560" inkscape:current-layer="layer1" inkscape:document-units="mm" inkscape:pageshadow="2" inkscape:pageopacity="0.0" inkscape:window-maximized="1" showgrid="false" inkscape:cy="217.40932" inkscape:cx="-57.925615" inkscape:zoom="1.0823183" borderopacity="1.0" bordercolor="#666666" pagecolor="#ffffff">
	</sodipodi:namedview>
<g id="layer1" transform="translate(-31.644989,-60.186406)" inkscape:groupmode="layer" inkscape:label="惜 1">
	<g enable-background="new    ">
		<path fill="#022060" d="M188.272,83.67c0,13.876-9.587,25.782-28.758,35.719c-12.797,6.704-28.032,11.79-45.703,15.258
			l-8.578,24.469H79.569l25.664-72.141h25.453l-12.094,33.82c9.093-2.062,17.156-5.273,24.188-9.633
			c9.796-6.14,14.882-13.289,15.258-21.445c0.234-5.249-1.524-8.694-5.273-10.336c-2.25-0.984-6.305-1.477-12.164-1.477H68.74
			l10.969-17.719h72.422c10.593,0,18.679,1.313,24.258,3.938C184.31,67.827,188.272,74.343,188.272,83.67z"/>
		<path fill="#022060" d="M300.561,147.865c-0.188,3.516-1.828,6.328-4.922,8.438c-2.813,1.875-6.071,2.813-9.773,2.813h-27.07
			c-3.703,0-6.516-0.984-8.438-2.953c-1.266-1.266-2.859-4.031-4.781-8.297l-13.852-30.656c1.733-0.327,5.741-1.663,12.023-4.008
			c6.093-2.25,9.914-3.797,11.461-4.641c9.327-4.827,13.992-10.874,13.992-18.141c0-8.343-5.906-12.516-17.719-12.516h-71.719
			l10.969-17.719h70.805c25.453,0,38.18,8.11,38.18,24.328c0,13.735-13.243,25.734-39.727,36l12.656,27.352H300.561z
			 M241.709,86.975l-25.664,72.141h-25.313l25.453-72.141H241.709z"/>
	</g>
	<g enable-background="new    ">
		<path fill="#FE0000" d="M187.527,196.145c0,10.127-3.514,20.835-10.542,32.124c-9.297,14.887-22.8,26.425-40.508,34.614
			c-16.325,7.526-33.867,11.289-52.627,11.289H56.458l30.049-85.166h29.966l-25.483,71.885c10.901,0,21.707-3.348,32.415-10.044
			c10.708-6.695,18.524-14.969,23.45-24.819c4.427-8.688,6.641-15.938,6.641-21.748c0-9.518-2.656-16.353-7.969-20.503
			c-4.76-3.652-12.064-5.479-21.914-5.479H43.342l12.783-20.918h80.352c13.89,0,25.455,2.934,34.697,8.799
			C182.076,173.097,187.527,183.086,187.527,196.145z"/>
		<path fill="#FE0000" d="M322.663,177.634c0,5.811-2.297,10.708-6.89,14.692c-4.372,3.764-9.491,5.645-15.356,5.645
			c-5.922,0-11.096-1.881-15.522-5.645c-4.594-3.984-6.89-8.882-6.89-14.692c0-1.937,0.221-3.597,0.664-4.98
			c-11.843,0.111-22.606,6.254-32.29,18.428c-9.076,11.511-13.613,23.354-13.613,35.527c0,22.855,14.913,34.282,44.741,34.282
			h41.753c-1.716,8.854-8.439,13.281-20.171,13.281h-30.63c-19.092,0-34.587-2.767-46.484-8.301
			c-16.325-7.637-24.404-20.06-24.238-37.271c0.11-9.629,3.071-19.258,8.882-28.887c7.913-13.17,19.146-23.574,33.701-31.211
			c14.111-7.415,29.107-11.123,44.99-11.123h16.602c5.367,0,10.169,2.048,14.402,6.143
			C320.547,167.619,322.663,172.322,322.663,177.634z"/>
	</g>
	<g enable-background="new    ">
		<path fill="#016600" d="M99.789,366.734v12.164H31.656c-0.095-3.046,0.397-5.977,1.477-8.789
			c1.733-4.641,4.511-9.211,8.332-13.711c3.82-4.5,9.339-9.703,16.559-15.609c11.203-9.187,18.773-16.464,22.711-21.832
			c3.938-5.366,5.906-10.441,5.906-15.223c0-5.015-1.793-9.246-5.379-12.691s-8.262-5.168-14.027-5.168
			c-6.094,0-10.969,1.828-14.625,5.484s-5.509,8.719-5.555,15.188l-13.008-1.336c0.89-9.703,4.242-17.097,10.055-22.184
			c5.812-5.085,13.616-7.629,23.414-7.629c9.89,0,17.719,2.742,23.484,8.227s8.648,12.282,8.648,20.391
			c0,4.126-0.844,8.181-2.531,12.164c-1.688,3.985-4.489,8.181-8.402,12.586c-3.915,4.407-10.418,10.454-19.512,18.141
			c-7.594,6.376-12.47,10.7-14.625,12.973c-2.157,2.274-3.938,4.56-5.344,6.855H99.789z"/>
		<path fill="#016600" d="M113.36,328.062c0-12.187,1.253-21.995,3.762-29.426c2.507-7.429,6.233-13.159,11.18-17.191
			c4.945-4.03,11.167-6.047,18.668-6.047c5.53,0,10.382,1.114,14.555,3.34c4.171,2.228,7.617,5.438,10.336,9.633
			c2.718,4.196,4.852,9.306,6.398,15.328c1.547,6.024,2.32,14.146,2.32,24.363c0,12.094-1.243,21.856-3.727,29.285
			c-2.485,7.431-6.2,13.173-11.145,17.227c-4.946,4.056-11.192,6.082-18.738,6.082c-9.938,0-17.743-3.562-23.414-10.688
			C116.758,361.39,113.36,347.422,113.36,328.062z M126.367,328.062c0,16.923,1.979,28.185,5.941,33.785
			c3.96,5.603,8.847,8.402,14.66,8.402c5.812,0,10.698-2.813,14.66-8.438c3.96-5.625,5.941-16.875,5.941-33.75
			c0-16.968-1.981-28.241-5.941-33.82c-3.962-5.577-8.895-8.367-14.801-8.367c-5.813,0-10.454,2.461-13.922,7.383
			C128.547,299.54,126.367,311.141,126.367,328.062z"/>
		<path fill="#016600" d="M241.117,378.898h-12.656V298.25c-3.048,2.907-7.043,5.813-11.988,8.719
			c-4.946,2.907-9.387,5.087-13.324,6.539v-12.234c7.077-3.327,13.265-7.358,18.563-12.094c5.297-4.733,9.046-9.327,11.25-13.781
			h8.156V378.898z"/>
		<path fill="#016600" d="M293.008,323c-5.25-1.921-9.141-4.663-11.672-8.227c-2.531-3.562-3.797-7.827-3.797-12.797
			c0-7.499,2.695-13.804,8.086-18.914c5.39-5.108,12.562-7.664,21.516-7.664c9,0,16.242,2.614,21.727,7.84
			c5.484,5.228,8.227,11.591,8.227,19.09c0,4.781-1.255,8.942-3.762,12.48c-2.508,3.54-6.317,6.271-11.426,8.191
			c6.328,2.063,11.145,5.392,14.449,9.984c3.305,4.595,4.957,10.079,4.957,16.453c0,8.813-3.118,16.22-9.352,22.219
			c-6.234,6.001-14.438,9-24.609,9c-10.172,0-18.376-3.011-24.609-9.035c-6.234-6.022-9.352-13.535-9.352-22.535
			c0-6.702,1.698-12.315,5.098-16.84C281.887,327.723,286.726,324.641,293.008,323z M286.399,349.156
			c0,3.61,0.854,7.102,2.566,10.477c1.711,3.375,4.254,5.989,7.629,7.84c3.375,1.853,7.007,2.777,10.898,2.777
			c6.047,0,11.039-1.944,14.977-5.836c3.938-3.89,5.906-8.835,5.906-14.836c0-6.093-2.028-11.132-6.082-15.117
			c-4.055-3.983-9.13-5.977-15.223-5.977c-5.953,0-10.888,1.969-14.801,5.906C288.356,338.328,286.399,343.25,286.399,349.156z
			 M290.477,301.554c0,4.876,1.57,8.859,4.711,11.953c3.14,3.094,7.218,4.641,12.234,4.641c4.875,0,8.87-1.534,11.988-4.605
			c3.117-3.069,4.676-6.831,4.676-11.285c0-4.641-1.606-8.543-4.816-11.707c-3.211-3.164-7.207-4.746-11.988-4.746
			c-4.828,0-8.836,1.547-12.023,4.641C292.07,293.539,290.477,297.243,290.477,301.554z"/>
	</g>
</g>
</svg>
